<?xml version="1.0" encoding="UTF-8"?><svg id="Layer_1" xmlns="http://www.w3.org/2000/svg" viewBox="0 0 414.68 75.52"><defs><style>.cls-1{fill:#fff;}.cls-2{isolation:isolate;}</style></defs><g class="cls-2"><path class="cls-1" d="M41.06,43.6l-4.8,2.48c-.08-.23-.74-1.76-1.98-4.6-1.23-2.84-2.86-6.49-4.89-10.96H11.11c-2.17,4.8-3.84,8.51-5.02,11.14-1.18,2.63-1.83,4.11-1.95,4.41l-4.14-2.24c.54-1.07,2.74-5.79,6.62-14.15,3.88-8.36,7.91-17.15,12.08-26.37h4.01c4.12,9.22,8.16,18.14,12.13,26.78,3.97,8.64,6.04,13.13,6.2,13.48Zm-13.41-17.02c-1.09-2.51-2.24-5.14-3.45-7.88s-2.48-5.6-3.82-8.59l-.12,.03c-1.04,2.26-2.28,5.04-3.75,8.34-1.46,3.3-2.67,6-3.62,8.09v.03s14.77,0,14.77,0v-.03Z"/><path class="cls-1" d="M78.49,29.37c0,3.37-.83,6.27-2.48,8.7-1.66,2.43-3.89,4.24-6.71,5.43-1.83,.78-3.92,1.35-6.27,1.71-2.35,.36-5.17,.54-8.46,.54h-2.75c.02-1.58,.05-4.52,.08-8.82,.03-4.3,.05-9.47,.05-15.52,0-3.7-.01-7.29-.03-10.77-.02-3.48-.05-7.02-.09-10.64h4.88l-.09,14.23c4.22,.04,7.6,.42,10.14,1.13,2.54,.71,4.66,1.67,6.34,2.88,1.75,1.25,3.09,2.82,4.01,4.7,.93,1.88,1.39,4.02,1.39,6.43Zm-4.94,.12c0-2.49-.71-4.57-2.11-6.26-1.41-1.68-3.23-2.91-5.45-3.67-1.15-.39-2.4-.69-3.73-.91-1.34-.22-2.72-.32-4.14-.32h-1.51c0,.45,0,2.09-.02,4.92-.01,2.83-.02,5.15-.02,6.98,0,3.43,0,5.86,.03,7.28,.02,1.42,.03,2.86,.03,4.32,2.26,0,4.33-.17,6.2-.51,1.87-.34,3.49-.87,4.85-1.59,1.98-1.05,3.45-2.43,4.41-4.15s1.45-3.75,1.45-6.09Z"/><path class="cls-1" d="M119,29.63c0,2.39-.43,4.67-1.28,6.85-.86,2.18-2.08,4.04-3.69,5.59-1.36,1.3-2.87,2.28-4.52,2.96-1.66,.68-3.54,1.02-5.63,1.02-1.97,0-3.83-.33-5.55-1-1.73-.67-3.27-1.65-4.63-2.95-1.56-1.5-2.77-3.35-3.63-5.56-.85-2.2-1.28-4.53-1.28-6.98s.37-4.54,1.1-6.53c.73-1.99,1.87-3.77,3.41-5.36,1.38-1.44,2.98-2.55,4.82-3.32s3.77-1.16,5.8-1.16c2.14,0,4.08,.35,5.82,1.06,1.74,.71,3.29,1.78,4.65,3.2,1.56,1.63,2.73,3.45,3.49,5.48,.76,2.03,1.14,4.26,1.14,6.68Zm-4.94,.22c0-1.93-.31-3.82-.94-5.65-.63-1.83-1.6-3.38-2.92-4.63-.8-.78-1.75-1.38-2.85-1.81-1.1-.42-2.25-.63-3.44-.63-1.42,0-2.65,.23-3.7,.68-1.05,.45-2.04,1.16-2.96,2.13-1.09,1.11-1.95,2.53-2.58,4.26-.63,1.73-.94,3.52-.94,5.37,0,2.1,.32,4.03,.96,5.79,.64,1.76,1.67,3.28,3.09,4.55,.8,.72,1.73,1.27,2.78,1.65,1.05,.38,2.16,.57,3.33,.57,1.3,0,2.51-.23,3.63-.68,1.12-.45,2.1-1.11,2.95-1.98,1.17-1.19,2.07-2.63,2.69-4.32s.93-3.46,.93-5.31Z"/><path class="cls-1" d="M157.7,45.25h-4.72v-3.58l-.03-.03c-1.44,.95-3.24,1.92-5.39,2.92s-4.27,1.5-6.34,1.5c-2.84,0-5.06-.84-6.67-2.53-1.61-1.69-2.41-4.05-2.41-7.1,0-1.65,.02-3.61,.05-5.88,.03-2.27,.05-3.92,.05-4.95,0-1.87-.03-4.18-.08-6.93-.05-2.75-.08-4.3-.08-4.65h4.88c0,.27-.02,1.75-.06,4.44-.04,2.7-.06,4.85-.06,6.45,0,1.42,0,3.19,.03,5.31,.02,2.12,.03,3.62,.03,4.51,.04,2.43,.46,4.21,1.27,5.34s2.1,1.7,3.89,1.7,3.84-.49,6.03-1.48c2.19-.99,3.8-1.85,4.83-2.59,0-.25,0-1.38,.03-3.41,.02-2.03,.03-4.55,.03-7.58,0-2.16-.03-4.75-.08-7.76-.05-3.01-.08-4.66-.08-4.92h4.88c0,.35-.02,1.51-.06,3.47-.04,1.96-.06,5.31-.06,10.05,0,2.66,0,4.99,.03,6.99,.02,2.01,.05,5.58,.09,10.73Z"/><path class="cls-1" d="M190.72,41.42l-.55,3.92c-.14,.02-.5,.04-1.07,.06-.57,.02-1.05,.03-1.47,.03-4.22,0-7.41-.88-9.57-2.64-2.16-1.76-3.24-4.46-3.24-8.1,0-2.28,.02-4.73,.05-7.35,.03-2.61,.05-5.85,.05-9.72h-5.19v-3.61h5.46V6.7h4.48v7.32h11.05v3.61h-11.05c0,.43-.01,1.72-.05,3.86-.03,2.14-.05,3.72-.05,4.75v7.66c0,2.67,.72,4.6,2.16,5.79s3.66,1.77,6.67,1.77c.37,0,.81,0,1.33-.02,.51,0,.84-.02,.99-.02Z"/><path class="cls-1" d="M261.94,24.6c0,3.33-.57,6.39-1.71,9.18-1.14,2.79-2.63,5.09-4.46,6.9-2.04,2.02-4.2,3.48-6.48,4.4-2.28,.92-4.73,1.37-7.34,1.37s-4.96-.44-7.22-1.31c-2.26-.87-4.3-2.18-6.11-3.9-2-1.87-3.6-4.23-4.83-7.08-1.22-2.85-1.83-6.06-1.83-9.62,0-3.17,.48-6.05,1.45-8.66s2.42-4.94,4.35-7.02c1.79-1.93,3.92-3.43,6.38-4.49,2.47-1.06,5.07-1.59,7.8-1.59s5.35,.5,7.71,1.5c2.36,1,4.41,2.38,6.14,4.15,2.02,2.06,3.54,4.48,4.58,7.27,1.04,2.79,1.56,5.76,1.56,8.91Zm-5.25,.49c0-2.67-.45-5.3-1.34-7.89-.9-2.58-2.26-4.75-4.09-6.5-1.24-1.19-2.62-2.12-4.16-2.78-1.53-.66-3.25-.99-5.14-.99s-3.58,.33-5.18,1c-1.6,.67-3.04,1.65-4.34,2.95-1.65,1.65-2.93,3.68-3.85,6.11-.92,2.43-1.38,4.96-1.38,7.59,0,2.96,.47,5.62,1.41,7.96,.94,2.35,2.26,4.33,3.97,5.96,1.17,1.13,2.56,2.04,4.17,2.73,1.61,.69,3.33,1.03,5.16,1.03s3.55-.33,5.15-1c1.6-.67,3.04-1.63,4.34-2.89,1.54-1.48,2.81-3.37,3.8-5.66,.99-2.29,1.48-4.84,1.48-7.64Z"/><path class="cls-1" d="M301.77,45.25h-4.72v-3.58l-.03-.03c-1.44,.95-3.24,1.92-5.39,2.92s-4.27,1.5-6.34,1.5c-2.84,0-5.06-.84-6.67-2.53-1.61-1.69-2.41-4.05-2.41-7.1,0-1.65,.02-3.61,.05-5.88,.03-2.27,.05-3.92,.05-4.95,0-1.87-.03-4.18-.08-6.93-.05-2.75-.08-4.3-.08-4.65h4.88c0,.27-.02,1.75-.06,4.44-.04,2.7-.06,4.85-.06,6.45,0,1.42,0,3.19,.03,5.31,.02,2.12,.03,3.62,.03,4.51,.04,2.43,.46,4.21,1.27,5.34s2.1,1.7,3.89,1.7,3.84-.49,6.03-1.48c2.19-.99,3.8-1.85,4.83-2.59,0-.25,0-1.38,.03-3.41,.02-2.03,.03-4.55,.03-7.58,0-2.16-.03-4.75-.08-7.76-.05-3.01-.08-4.66-.08-4.92h4.88c0,.35-.02,1.51-.06,3.47-.04,1.96-.06,5.31-.06,10.05,0,2.66,0,4.99,.03,6.99,.02,2.01,.05,5.58,.09,10.73Z"/><path class="cls-1" d="M335.87,17.66c-1.13,.27-2.87,.83-5.2,1.7-2.34,.86-5.03,2.02-8.07,3.46,0,.23-.01,1.26-.03,3.1s-.03,3.55-.03,5.14c0,2.43,.03,5.31,.08,8.64,.05,3.33,.08,5.19,.08,5.56h-4.88c0-.35,.02-1.5,.06-3.46,.04-1.96,.06-5.3,.06-10.03,0-1.91-.01-4.59-.03-8.03-.02-3.44-.05-6.68-.09-9.72h4.79v4.69l.03,.03c2.33-1.32,4.62-2.46,6.88-3.43,2.26-.97,4.08-1.62,5.43-1.98l.93,4.32Z"/></g><g class="cls-2"><path d="M249.31,31.75c-.56,0-.88-.38-1.19-.94-.19-.5-1.13-2.38-3.57-2.38-6.89,0-8.2,10.46-9.96,21.04-1.31,8.02-1.94,12.77-3.38,16.53,1.44-.12,2.57-.12,4.01-.12,14.97,0,17.41,3.32,17.41,4.51,0,.63-.5,1.32-1.19,1.32-.38,0-.63-.19-1.63-.88-1.38-.94-3.44-2.57-13.78-2.57-1.88,0-3.82,0-5.89,.25-2.13,4.01-5.82,7.01-9.96,7.01-2,0-3.38-1.38-3.38-2.88,0-3.26,5.32-5.45,11.52-6.26,1.57-3.69,2.38-9.02,3.69-17.6,1.63-10.71,3.13-22.73,12.65-22.73,4.38,0,6.14,3.07,6.14,4.2,0,.81-.63,1.5-1.5,1.5Zm-22.11,37.2c-4.32,.69-7.77,1.82-7.77,3.69,0,.25,.31,.56,.88,.56,2.63,0,5.32-1.75,6.89-4.26Z"/><path d="M258.57,63.75c0,3.51,1.63,5.01,4.13,5.01,3.95,0,8.27-6.2,8.27-13.96,0-3.57-1.75-6.45-4.88-6.45-2.19,0-2.94,1.13-3.51,1.63-.5,.44-.75,.63-1.19,.63-.75,0-1.19-.56-1.19-1.13,0-.44,.19-.88,.56-1.25,.69-.75,2.57-2.07,5.32-2.07,4.32,0,7.45,3.51,7.45,8.77,0,9.08-5.95,15.78-11.08,15.78-3.44,0-6.45-2.32-6.45-6.95,0-5.76,3.76-10.14,5.95-11.83,.31-.25,1-.75,1.63-.75,.88,0,1.38,.63,1.38,1.25,0,.81-.63,1.13-1.63,1.75-1.5,.94-4.76,4.76-4.76,9.58Z"/><path d="M293.26,55.11c0-.44,.19-1,.69-1.57,.56-.69,1.19-1.44,1.19-2.5,0-.88-.44-1.69-1.57-1.69-3.01,0-8.64,5.89-8.64,13.21,0,3.95,2.07,5.2,4.76,5.2,4.2,0,10.14-6.58,12.46-10.08,.38-.56,.81-1.25,1.44-1.25,.56,0,1,.31,1,.94,0,.38-.19,.75-.63,1.38-3.19,4.57-9.33,11.27-15.03,11.27-3.44,0-7.33-2-7.33-7.45,0-8.77,7.76-15.09,12.21-15.09,2.25,0,3.88,1.25,3.88,3.76,0,1.19-.25,2.44-.75,3.51-.63,1.25-1.19,1.82-2.13,1.82-.75,0-1.57-.69-1.57-1.44Z"/><path d="M309.1,69.7c-2.13,0-4.07-1.57-4.07-5.01,0-8.45,7.89-16.97,14.28-16.97,2.5,0,3.69,1.32,3.76,2.32,.56,0,1.25,.31,1.25,1.25,0,1.19-1.69,4.45-1.69,7.64,0,2.57,.63,4.32,2.07,4.32,2.44,0,5.51-5.89,5.51-5.89,.31-.5,.63-.88,1.06-.88,.5,0,.88,.31,.88,.88,0,.31-.31,.94-.31,.94,0,0-3.51,7.2-7.51,7.2-4.7,0-4.01-6.01-4.63-6.01-.75,0-5.64,10.21-10.58,10.21Zm8.77-12.46c1.31-2.38,2.44-5.7,3.51-6.14,0-.56-.94-1.06-2.07-1.06-4.2,0-11.46,7.64-11.46,14.9,0,1.57,.56,2.57,1.82,2.57,2.25,0,5.07-4.63,8.2-10.27Z"/><path d="M341.16,31.87c.63,0,1.25,.44,1.13,1.38-.63,4.32-1.63,8.45-2.57,12.21l-.63,2.5c2.44-.69,4.88-1.5,7.08-1.5,3.44,0,4.38,1.57,4.38,4.13,0,3.26-.75,5.07-.75,9.08,0,5.2,1.13,6.89,2.94,6.89,3.01,0,6.14-6.95,7.26-9.21,.25-.5,.56-.88,1-.88,.5,0,.88,.25,.88,.81,0,.31-.25,1-.25,1-1.13,2.82-4.32,10.52-9.14,10.52-3.01,0-5.45-2.38-5.45-8.95,0-3.44,.5-5.45,.5-8.33,0-1.88-.38-2.88-1.88-2.88-2.13,0-4.63,.88-7.14,1.63-.88,3.95-1.44,7.7-1.44,11.27,0,8.77,2.5,11.02,2.5,11.02,.44,.44,.63,.75,.63,1.13,0,.63-.63,1.19-1.25,1.25-.31,0-.69-.13-1-.38,0,0-3.51-2.5-3.51-12.78,0-3.69,.5-7.2,1.25-10.77-.75,.19-1.44,.25-2.19,.25-2.82,0-4.32-1.38-4.32-2.38,0-.81,1.44-1.57,2.32-.44,0,0,.25,.56,2,.56,.88,0,1.82-.12,2.76-.31l1.19-5.13c.81-3.38,1.57-6.76,2.25-10.4,.12-.88,.81-1.31,1.44-1.31Zm10.77,3.26c1,0,1.94,.88,1.94,2s-1.06,2.44-2.25,2.44c-1.06,0-2-.75-2-1.88s1-2.57,2.32-2.57Z"/><path d="M405.28,68.82c-4.38,0-5.01-3.94-6.33-13.15-.31-2.13-.5-3.51-1.57-3.51-2.38,0-5.82,5.57-8.2,10.52-1.82,3.76-2.88,7.2-2.88,7.2-.19,.69-.69,.94-1.25,.94-.63,0-1.25-.38-1.32-1.25-.19-2.38,.81-7.51,1.44-11.02,.69-3.38,1.63-8.08,1.63-10.08,0-1.5-.63-1.94-1.5-1.94-1.38,0-4.76,.81-7.08,2.38,.38,.44,1.88,2.5,1.88,7.08,0,8.52-5.95,14.9-11.08,14.9-3.38,0-6.07-2.51-6.07-7.14,0-5.95,4.07-10.46,6.89-12.34,.56-.38,1.06-.69,1.69-.69,.69,0,1.19,.44,1.19,1.06,0,.38-.19,.81-.69,1.13-2.38,1.44-6.51,5.2-6.51,10.83,0,3.51,1.38,4.88,3.76,4.88,4.01,0,8.33-5.57,8.33-12.65,0-4.26-1.19-5.32-1.94-6.01-.38-.31-.63-.5-.63-.94,0-2,7.39-4.7,10.83-4.7,2.19,0,3.95,.94,3.95,3.38,0,3.07-.88,7.77-2,13.15,2.63-5.51,6.2-11.15,9.89-11.15,2.69,0,3.32,2.13,3.82,5.39,1.32,8.77,1.82,11.52,3.95,11.52,3.95,0,7.01-9.27,7.01-9.27,.25-.69,.69-1,1.13-1,.56,0,1.06,.44,1.06,.94,0,.44-.13,.75-.31,1.38-.56,1.69-3.51,10.14-9.08,10.14Z"/></g></svg>