<?xml version="1.0" encoding="UTF-8"?><svg id="Layer_1" xmlns="http://www.w3.org/2000/svg" viewBox="0 0 571.3 77.88"><defs><style>.cls-1{fill:#fff;}.cls-2{isolation:isolate;}</style></defs><g class="cls-2"><path class="cls-1" d="M50.46,41.57l-4.68,.92-5.94-32.26-.04-.04c-.75,1.55-2.41,5.16-4.98,10.82-2.57,5.66-5.07,11.34-7.51,17.03h-3.97c-2.28-5.27-4.8-10.97-7.56-17.1-2.76-6.13-4.38-9.7-4.86-10.71h-.06c-.11,.5-.89,4.16-2.33,11-1.44,6.83-2.81,13.91-4.12,21.21l-4.41-.81c1.92-8.26,3.71-16.44,5.38-24.55S7.95,4.57,8.11,3.88l4.57-.66c.19,.44,1.55,3.53,4.07,9.26,2.52,5.73,5.49,12.33,8.9,19.81h.17c2.61-5.86,5.37-12.11,8.28-18.74,2.91-6.63,4.43-10.07,4.54-10.32l4.34,.35c.06,.42,.85,4.62,2.39,12.61,1.53,7.98,3.23,16.45,5.09,25.4Z"/><path class="cls-1" d="M88.28,27.6c0,2.22-.4,4.35-1.19,6.38-.8,2.03-1.94,3.77-3.44,5.2-1.26,1.21-2.67,2.13-4.21,2.76-1.54,.63-3.29,.95-5.25,.95-1.84,0-3.56-.31-5.17-.93-1.61-.62-3.05-1.54-4.31-2.75-1.46-1.4-2.58-3.12-3.38-5.17-.8-2.05-1.19-4.22-1.19-6.5s.34-4.23,1.02-6.08c.68-1.85,1.74-3.51,3.18-4.99,1.28-1.34,2.78-2.37,4.48-3.09s3.51-1.08,5.41-1.08c1.99,0,3.8,.33,5.42,.99,1.62,.66,3.06,1.65,4.33,2.98,1.46,1.51,2.54,3.22,3.25,5.1s1.06,3.96,1.06,6.22Zm-4.6,.2c0-1.8-.29-3.56-.88-5.26-.58-1.71-1.49-3.14-2.72-4.31-.75-.73-1.63-1.29-2.66-1.68-1.03-.39-2.09-.59-3.21-.59-1.32,0-2.47,.21-3.45,.63-.98,.42-1.9,1.08-2.76,1.98-1.02,1.03-1.82,2.36-2.4,3.97s-.88,3.28-.88,5c0,1.96,.3,3.75,.89,5.39,.59,1.64,1.55,3.05,2.88,4.24,.75,.67,1.61,1.18,2.59,1.54,.98,.35,2.01,.53,3.1,.53,1.21,0,2.33-.21,3.38-.63,1.04-.42,1.96-1.04,2.75-1.84,1.09-1.11,1.93-2.45,2.5-4.03,.57-1.57,.86-3.22,.86-4.94Z"/><path class="cls-1" d="M117.45,16.44c-1.05,.25-2.67,.78-4.84,1.58s-4.68,1.88-7.52,3.22c0,.21,0,1.17-.03,2.89s-.03,3.31-.03,4.79c0,2.26,.02,4.95,.07,8.05,.05,3.1,.07,4.83,.07,5.17h-4.54c0-.33,.02-1.4,.06-3.22,.04-1.82,.06-4.94,.06-9.34,0-1.78,0-4.27-.03-7.48-.02-3.2-.05-6.22-.09-9.06h4.46v4.37l.03,.03c2.17-1.23,4.3-2.29,6.41-3.19s3.79-1.51,5.06-1.84l.86,4.02Z"/><path class="cls-1" d="M150.13,26.54h-20.79c.02,2.03,.45,3.9,1.29,5.59,.84,1.7,2.14,3.1,3.88,4.21,1.11,.71,2.38,1.24,3.79,1.6,1.42,.35,3.12,.53,5.12,.53,1.09,0,2.09-.03,3-.09,.91-.06,1.47-.1,1.68-.12l-.52,3.82c-.15,.02-.66,.05-1.52,.1-.86,.05-1.88,.07-3.05,.07-3.07,0-5.74-.4-8.01-1.19-2.27-.79-4.14-1.89-5.59-3.29-1.25-1.17-2.31-2.66-3.18-4.48-.87-1.82-1.31-3.84-1.31-6.07s.33-4.16,.98-5.92c.65-1.76,1.63-3.4,2.93-4.92,1.13-1.3,2.53-2.31,4.21-3.02,1.68-.71,3.42-1.06,5.22-1.06s3.36,.27,4.74,.81c1.38,.54,2.58,1.35,3.59,2.44,1.13,1.23,1.99,2.74,2.59,4.53,.59,1.79,.9,3.94,.92,6.45Zm-4.46-3.22c-.31-2.38-1.12-4.24-2.43-5.59s-3.04-2.03-5.19-2.03-3.94,.69-5.38,2.06c-1.44,1.37-2.43,3.22-2.99,5.56h15.98Z"/><path class="cls-1" d="M187.51,42.15h-4.74c.02-1.15,.05-3.2,.09-6.15s.06-7.19,.06-12.71c0-2.19,0-5.05-.03-8.6-.02-3.55-.06-7.23-.11-11.04h4.74c-.04,2.74-.07,5.93-.1,9.56-.03,3.63-.04,6.6-.04,8.9,0,5.83,.02,10.34,.06,13.53,.04,3.19,.07,5.36,.09,6.51Z"/><path class="cls-1" d="M227.8,42.15h-4.54c.02-.54,.04-2.31,.07-5.32,.03-3.01,.04-4.87,.04-5.58,0-1,0-2.47-.01-4.41,0-1.95-.02-3.37-.04-4.27-.06-2.2-.48-3.79-1.27-4.74-.79-.96-2.15-1.44-4.08-1.44-1.17,0-2.62,.35-4.34,1.04-1.72,.69-3.47,1.57-5.23,2.65,0,.21,0,1.35-.03,3.42-.02,2.07-.03,3.96-.03,5.66,0,2.22,.02,4.91,.07,8.05,.05,3.14,.07,4.79,.07,4.94h-4.54c0-.13,.02-1.31,.06-3.52,.04-2.21,.06-5.51,.06-9.88,0-2.01,0-4.37-.01-7.07,0-2.7-.04-5.58-.1-8.62h4.48l-.03,3.31,.03,.06c2.68-1.53,4.92-2.6,6.71-3.21,1.79-.6,3.28-.91,4.47-.91,2.45,0,4.42,.77,5.91,2.31,1.48,1.54,2.23,3.66,2.23,6.34,0,2.42-.01,4.5-.04,6.25s-.04,3.18-.04,4.27c0,1.74,.02,3.92,.07,6.54,.05,2.62,.07,3.99,.07,4.13Z"/><path class="cls-1" d="M259.21,3.68h-1.44c-1.8,0-3.22,.16-4.25,.49-1.04,.33-1.96,.88-2.79,1.66-.63,.59-1.12,1.41-1.45,2.45-.34,1.04-.5,2.2-.5,3.48v1.29h9.77v3.36h-9.77c0,6.21,.01,11.97,.04,17.29s.04,8.13,.04,8.44h-4.54c0-.31,.02-3,.06-8.09,.04-5.09,.06-10.97,.06-17.64h-5.66v-3.36h5.66v-1.41c0-1.68,.22-3.19,.66-4.52,.44-1.33,1.22-2.58,2.33-3.74,.96-.99,2.23-1.81,3.82-2.44,1.59-.63,3.55-.95,5.86-.95h1.55l.55,3.68Z"/><path class="cls-1" d="M294.16,27.6c0,2.22-.4,4.35-1.19,6.38-.8,2.03-1.94,3.77-3.44,5.2-1.26,1.21-2.67,2.13-4.21,2.76-1.54,.63-3.29,.95-5.25,.95-1.84,0-3.56-.31-5.17-.93-1.61-.62-3.05-1.54-4.31-2.75-1.46-1.4-2.58-3.12-3.38-5.17-.8-2.05-1.19-4.22-1.19-6.5s.34-4.23,1.02-6.08c.68-1.85,1.74-3.51,3.18-4.99,1.28-1.34,2.78-2.37,4.48-3.09s3.51-1.08,5.41-1.08c1.99,0,3.8,.33,5.42,.99,1.62,.66,3.06,1.65,4.33,2.98,1.46,1.51,2.54,3.22,3.25,5.1,.71,1.89,1.06,3.96,1.06,6.22Zm-4.6,.2c0-1.8-.29-3.56-.88-5.26-.58-1.71-1.49-3.14-2.72-4.31-.75-.73-1.63-1.29-2.66-1.68-1.03-.39-2.09-.59-3.21-.59-1.32,0-2.47,.21-3.45,.63-.98,.42-1.9,1.08-2.76,1.98-1.02,1.03-1.82,2.36-2.4,3.97s-.88,3.28-.88,5c0,1.96,.3,3.75,.89,5.39,.59,1.64,1.55,3.05,2.88,4.24,.75,.67,1.61,1.18,2.59,1.54,.98,.35,2.01,.53,3.1,.53,1.21,0,2.33-.21,3.38-.63,1.04-.42,1.96-1.04,2.75-1.84,1.09-1.11,1.93-2.45,2.5-4.03,.57-1.57,.86-3.22,.86-4.94Z"/><path class="cls-1" d="M323.33,16.44c-1.05,.25-2.67,.78-4.85,1.58s-4.68,1.88-7.52,3.22c0,.21,0,1.17-.03,2.89s-.03,3.31-.03,4.79c0,2.26,.02,4.95,.07,8.05,.05,3.1,.07,4.83,.07,5.17h-4.54c0-.33,.02-1.4,.06-3.22,.04-1.82,.06-4.94,.06-9.34,0-1.78,0-4.27-.03-7.48-.02-3.2-.05-6.22-.09-9.06h4.46v4.37l.03,.03c2.17-1.23,4.3-2.29,6.41-3.19,2.11-.9,3.79-1.51,5.06-1.84l.86,4.02Z"/><path class="cls-1" d="M374.81,42.15h-4.54c.02-.21,.04-1.55,.07-4.02,.03-2.47,.04-4.8,.04-6.99,0-.86,0-2.28-.01-4.24,0-1.96-.02-3.44-.04-4.41-.06-2.3-.51-3.89-1.37-4.77-.85-.88-2.17-1.32-3.95-1.32-1.05,0-2.3,.26-3.75,.78s-3.08,1.33-4.9,2.44c0,.1,0,.29,.01,.57s.01,.66,.01,1.12c0,1.55,0,3.12-.03,4.72-.02,1.6-.03,3.13-.03,4.58,0,3.18,.02,5.85,.07,8.01,.05,2.16,.07,3.34,.07,3.53h-4.54c0-.21,.02-1.37,.06-3.48,.04-2.11,.06-4.6,.06-7.48,0-.96,0-2.41-.01-4.36s-.02-3.38-.04-4.3c-.02-.84-.1-1.65-.23-2.42-.13-.77-.38-1.42-.75-1.95-.4-.59-.92-1.04-1.55-1.34-.63-.3-1.53-.45-2.7-.45-1.07,0-2.33,.31-3.77,.94s-3.09,1.53-4.94,2.71c0,.33,0,1.55-.03,3.66-.02,2.11-.03,3.84-.03,5.18,0,2.28,.02,5.01,.07,8.2s.07,4.88,.07,5.07h-4.54c0-.15,.02-1.27,.06-3.35s.06-5.52,.06-10.34c0-1.57,0-3.69-.01-6.35-.01-2.66-.04-5.68-.1-9.06h4.49l-.03,3.31,.03,.03c1.28-.92,2.9-1.83,4.84-2.73,1.94-.9,3.67-1.35,5.16-1.35,1.88,0,3.45,.39,4.7,1.18,1.26,.79,2.15,1.78,2.69,2.99h.06c2.2-1.36,4.23-2.4,6.08-3.1s3.43-1.06,4.73-1.06c2.65,0,4.71,.77,6.2,2.31,1.48,1.54,2.23,3.63,2.23,6.25,0,2.03-.01,3.74-.04,5.13-.03,1.39-.04,2.86-.04,4.41,0,3.22,.02,5.94,.07,8.17,.05,2.22,.07,3.41,.07,3.56Z"/><path class="cls-1" d="M409.56,25.76c0,4.75,0,8.62-.03,11.61-.02,2.99-.03,4.6-.03,4.83-.19,.02-1.08,.09-2.67,.22s-3.64,.19-6.15,.19c-1.57,0-3.15-.14-4.74-.43-1.59-.29-2.96-.7-4.11-1.24-1.53-.71-2.77-1.68-3.72-2.9-.95-1.23-1.42-2.7-1.42-4.43,0-1.82,.56-3.4,1.68-4.73,1.12-1.33,2.68-2.41,4.67-3.23,1.25-.52,2.91-.98,4.99-1.39,2.08-.41,4.45-.72,7.12-.93-.11-1.5-.49-2.72-1.12-3.68-.63-.96-1.56-1.69-2.79-2.18-.84-.35-1.78-.59-2.82-.73-1.03-.14-2.24-.22-3.62-.22-.86,0-1.6,.02-2.2,.06-.6,.04-1.42,.09-2.46,.14l.46-3.82c.29-.02,.86-.05,1.71-.1,.85-.05,2.02-.07,3.49-.07,2.26,0,4.28,.24,6.05,.7,1.77,.47,3.24,1.23,4.41,2.29,1.09,1,1.92,2.23,2.47,3.69s.83,3.59,.83,6.37Zm-4.4,6.93v-2.47c0-1,0-2.15-.03-3.45-.84,.04-2.32,.21-4.43,.5-2.11,.3-3.88,.72-5.32,1.28-1.07,.4-2.03,1.01-2.86,1.81-.83,.81-1.25,1.8-1.25,2.99,0,1.3,.35,2.35,1.06,3.15,.71,.8,1.68,1.4,2.9,1.83,.94,.33,1.98,.56,3.12,.7,1.14,.14,2.34,.22,3.61,.22,.38,0,.85,0,1.41-.03,.56-.02,1.14-.04,1.75-.06,0-.13,0-.77,.01-1.9,0-1.13,.01-2.65,.01-4.57Z"/><path class="cls-1" d="M440.05,38.58l-.52,3.65c-.13,.02-.46,.04-.99,.06-.53,.02-.98,.03-1.37,.03-3.93,0-6.9-.82-8.91-2.46s-3.02-4.15-3.02-7.55c0-2.13,.01-4.41,.04-6.84s.04-5.45,.04-9.06h-4.83v-3.36h5.09V6.24h4.17v6.81h10.29v3.36h-10.29c0,.4-.01,1.6-.04,3.59-.03,1.99-.04,3.47-.04,4.43v7.13c0,2.49,.67,4.29,2.01,5.39,1.34,1.1,3.41,1.65,6.21,1.65,.35,0,.76,0,1.24-.01,.48,0,.79-.01,.92-.01Z"/><path class="cls-1" d="M456.86,7.47h-5.06V2.53h5.06V7.47Zm-.26,34.67h-4.54c.02-.31,.04-2.19,.07-5.66,.03-3.47,.04-6.33,.04-8.6,0-1.97,0-4.14-.01-6.51s-.04-5.14-.1-8.32h4.54c-.04,2.76-.07,5.34-.1,7.75-.03,2.41-.04,4.55-.04,6.43,0,4.47,.02,8.05,.07,10.75,.05,2.7,.07,4.09,.07,4.17Z"/><path class="cls-1" d="M497.38,27.6c0,2.22-.4,4.35-1.19,6.38-.8,2.03-1.94,3.77-3.44,5.2-1.27,1.21-2.67,2.13-4.21,2.76-1.54,.63-3.29,.95-5.25,.95-1.84,0-3.57-.31-5.17-.93-1.61-.62-3.05-1.54-4.31-2.75-1.46-1.4-2.58-3.12-3.38-5.17-.8-2.05-1.19-4.22-1.19-6.5s.34-4.23,1.02-6.08c.68-1.85,1.74-3.51,3.18-4.99,1.28-1.34,2.78-2.37,4.49-3.09,1.71-.72,3.51-1.08,5.4-1.08,1.99,0,3.8,.33,5.42,.99,1.62,.66,3.06,1.65,4.33,2.98,1.46,1.51,2.54,3.22,3.25,5.1s1.06,3.96,1.06,6.22Zm-4.6,.2c0-1.8-.29-3.56-.88-5.26-.58-1.71-1.49-3.14-2.72-4.31-.75-.73-1.63-1.29-2.66-1.68-1.03-.39-2.09-.59-3.21-.59-1.32,0-2.47,.21-3.45,.63-.98,.42-1.9,1.08-2.76,1.98-1.02,1.03-1.82,2.36-2.4,3.97s-.88,3.28-.88,5c0,1.96,.3,3.75,.89,5.39,.59,1.64,1.55,3.05,2.88,4.24,.75,.67,1.61,1.18,2.59,1.54,.98,.35,2.01,.53,3.11,.53,1.21,0,2.33-.21,3.38-.63,1.04-.42,1.96-1.04,2.75-1.84,1.09-1.11,1.93-2.45,2.5-4.03,.58-1.57,.86-3.22,.86-4.94Z"/><path class="cls-1" d="M533.59,42.15h-4.54c.02-.54,.04-2.31,.07-5.32,.03-3.01,.04-4.87,.04-5.58,0-1,0-2.47-.01-4.41s-.02-3.37-.04-4.27c-.06-2.2-.48-3.79-1.26-4.74-.79-.96-2.15-1.44-4.08-1.44-1.17,0-2.62,.35-4.34,1.04-1.73,.69-3.47,1.57-5.23,2.65,0,.21,0,1.35-.03,3.42-.02,2.07-.03,3.96-.03,5.66,0,2.22,.02,4.91,.07,8.05,.05,3.14,.07,4.79,.07,4.94h-4.54c0-.13,.02-1.31,.06-3.52,.04-2.21,.06-5.51,.06-9.88,0-2.01,0-4.37-.01-7.07-.01-2.7-.04-5.58-.1-8.62h4.49l-.03,3.31,.03,.06c2.68-1.53,4.92-2.6,6.71-3.21,1.79-.6,3.28-.91,4.47-.91,2.45,0,4.42,.77,5.91,2.31,1.49,1.54,2.23,3.66,2.23,6.34,0,2.42-.01,4.5-.04,6.25-.03,1.75-.04,3.18-.04,4.27,0,1.74,.02,3.92,.07,6.54s.07,3.99,.07,4.13Z"/></g><g class="cls-2"><path d="M378.55,26.19c.63,0,1.13,.44,1.13,1,0,.44-.12,1.19-.25,1.57-1.26,4.84-2.64,14.13-3.01,23.36,1.95,.25,2.83,.63,3.58,.88,.5,.19,.69,.63,.69,1.13s-.38,1.26-1.26,1.26c-.25,0-.69-.13-.94-.25-.5-.19-1.13-.38-2.14-.5v2.32c0,4.4,.31,8.67,1,12.31,0,0,0,1.32-1.38,1.32-1,0-1.26-1.13-1.26-1.13-.75-3.71-1.19-8.73-1.19-13.31v-1.82c-.94-.06-2.01-.13-3.33-.13-3.58,0-6.72,.19-9.42,.5-6.34,10.68-15.32,23.17-22.92,23.17-2.83,0-5.02-1.63-5.02-3.01,0-.75,.75-1.44,1.51-1.44,.69,0,1,.31,1.51,.75,.63,.5,1.26,1.13,2.89,1.13,5.59,0,12.94-10.49,18.78-20.1-9.29,1.57-13.25,4.71-14.63,5.78-.5,.44-.82,.69-1.44,.69-.82,0-1.32-.57-1.32-1.26,0-.44,.12-.82,.5-1.19,1.32-1.26,6.85-5.09,18.53-6.72l1.95-3.33c5.71-9.92,11.87-20.29,16.27-22.67,.5-.25,.88-.31,1.19-.31Zm-4.96,25.69c.31-8.29,1.44-16.33,2.45-20.66-2.83,3.08-8.29,11.31-12.81,19.28l-.94,1.7c2.39-.25,5.02-.38,7.91-.38,1.32,0,2.45,0,3.39,.06Z"/><path d="M405.31,45.73c2.39,0,4.71,1.82,4.71,5.78,0,7.41-6.22,15.83-11.37,15.83-2.57,0-4.33-1.32-4.33-2.64,0-.94,.75-1.57,1.44-1.57,1.32,0,1.63,1.76,3.14,1.76,3.83,0,7.98-7.1,7.98-14.19,0-1.88-.69-2.89-1.88-2.89-3.71,0-8.86,6.72-12,15.07-.5,1.26-.56,2.64-.69,4.21-.06,.82-.69,1.51-1.7,1.51s-1.51-.82-1.7-1.76c-.5-2.76-1-7.03-1-12.18,0-19.47,6.22-29.39,12.37-29.39,2.2,0,4.08,1.76,4.08,4.71,0,7.35-6.72,17.08-13.38,26.63-.19,2.01-.12,3.58-.12,5.46,2.7-7.16,8.98-16.33,14.45-16.33Zm-3.52-15.89c0-1.44-.57-2.07-1.51-2.07-3.64,0-9.48,9.8-9.48,25.69,5.46-7.98,10.99-18.15,10.99-23.61Z"/><path d="M460.76,67.33c-3.45,0-5.72-2.51-5.72-8.35,0-1.38,.06-3.27,.06-3.27-3.83,6.28-9.42,13.38-13.13,13.38-2.39,0-4.84-1.51-4.84-5.09,0-5.97,4.27-10.36,4.27-15.83,0-1.51-.56-1.95-1.44-1.95-2.26,0-5.09,1.57-7.6,1.44,.63,.69,1.76,2.58,1.76,7.41,0,8.54-5.9,14.95-11.05,14.95-3.45,0-6.15-2.51-6.15-7.16,0-5.59,3.27-9.73,5.28-11.56,.31-.31,1.07-.94,1.63-.94,.69,0,1.19,.57,1.19,1.32,0,.31-.13,.75-1,1.45-1.51,1.19-4.58,4.14-4.58,9.73,0,3.52,1.44,4.9,3.83,4.9,4.02,0,8.35-5.59,8.35-12.69,0-4.9-1.95-6.72-3.01-7.72-.31-.31-.69-.82-.69-1.19,0-1,.82-1.51,1.76-1.51,1,0,1.82,.69,2.76,.69,3.08,0,5.84-1.57,8.6-1.57,2.26,0,3.45,1.19,3.45,3.64,0,5.65-4.46,10.68-4.46,16.58,0,1.95,.88,2.83,2.01,2.83,3.33,0,9.11-8.67,13.57-17.21,.5-.88,1-1.13,1.51-1.13,.69,0,1.26,.44,1.26,1.19,0,.5-.06,1.51-.19,2.64-.19,1.88-.5,4.58-.5,6.66,0,4.08,1.26,6.22,3.46,6.22,2.95,0,5.59-7.79,5.97-8.73,.25-.69,.75-.94,1.19-.94,.5,0,1,.38,1,.88,0,.44-.06,.63-.25,1.26-.94,2.76-3.64,9.67-8.29,9.67Z"/><path d="M481.55,42.4c2.32,0,4.21,.38,4.21,1.57,0,.57-.5,1.26-1.13,1.26s-1.13-.63-3.27-.63c-1.88,0-3.2,.31-4.58,.69-.38,.12-.57,.38-.69,.88-1,4.08-1.82,9.42-1.82,14.13,0,5.15,1.57,6.66,3.45,6.66,2.83,0,6.09-6.78,7.6-9.73,.31-.63,.57-1.44,1.38-1.44,.5,0,1,.31,1,.88,0,.31-.13,.69-.38,1.32-1.19,2.95-5.15,11.18-9.8,11.18-2.95,0-6.03-2.39-6.03-8.98,0-4.71,.88-9.3,1.63-13.88,.06-.38-.06-.5-.5-.5-1.82,0-3.08-.44-3.83-.94-.57-.38-.69-.75-.69-1.13,0-.63,.63-1.26,1.19-1.26,1,0,1.63,1.07,3.77,1.07,.38,0,.63-.19,.75-.75,.75-3.39,1.51-6.91,2.7-10.36,.25-.75,.69-1.57,1.63-1.57,.82,0,1.51,.69,1.51,1.32,0,.44-.25,1.07-.5,1.7-1.26,3.08-2.51,9.23-2.51,9.23,1.44-.38,3.08-.69,4.9-.69Z"/><path d="M552.71,57.03c.5,0,1.07,.44,1.07,1.07,0,.25-.06,.38-.12,.63,0,0-4.15,7.1-9.48,7.1-3.58,0-7.16-2.64-7.16-10.87,0-1.82,.63-8.1,.63-8.1-5.71,10.74-13.06,23.99-20.85,23.99-3.71,0-7.03-2.39-7.03-7.29,0-10.43,8.17-19.53,8.17-30.02,0-2.64-1.26-4.02-1.7-4.52-.38-.44-.44-.63-.44-.94,0-.69,.57-1.26,1.32-1.26,.31,0,.69,.13,1,.44,.25,.19,2.64,2.32,2.64,6.28,0,10.99-8.04,20.47-8.04,30.02,0,3.2,1.82,4.77,4.21,4.77,6.53,0,13.75-13.25,20.41-26.82,3.08-6.22,4.21-9.36,4.21-9.36,.19-.57,.69-1.13,1.26-1.13,1,0,1.51,.63,1.51,1.38,0,.38-.12,.82-.25,1.19-.57,1.63-1.95,6.41-3.08,11.37-.82,3.64-1.13,7.29-1.13,9.8,0,6.59,2.14,8.67,4.4,8.67,3.39,0,6.28-4.02,7.54-5.78,.31-.38,.63-.63,.94-.63Z"/><path d="M566.96,64.82c0-4.15-10.17-3.14-10.17-8.92,0-4.77,6.09-8.98,10.61-8.98,2.32,0,3.89,1.13,3.89,3.2,0,2.26-1.63,5.21-3.01,5.21-.69,0-1.26-.44-1.26-1s.31-.88,.69-1.32c.57-.63,1.19-1.57,1.19-2.7,0-.82-.57-1.19-1.51-1.19-3.14,0-7.73,2.83-7.73,6.47,0,4.77,10.17,3.45,10.17,9.04,0,3.08-2.89,5.46-6.47,5.46-2.01,0-3.33-.5-4.4-1.13-.63-.38-.94-.94-.94-1.44,0-.75,.63-1.26,1.26-1.26,.44,0,.69,.19,1.13,.57,.57,.5,1.32,1.13,2.89,1.13,2.26,0,3.64-1.44,3.64-3.14Z"/></g></svg>